<svg xmlns="http://www.w3.org/2000/svg" version="1.1" xmlns:xlink="http://www.w3.org/1999/xlink" xmlns:svgjs="http://svgjs.dev/svgjs" width="1000" height="623" viewBox="0 0 1000 623"><g transform="matrix(1,0,0,1,-0.6060606060606233,0.2522267206477409)"><svg viewBox="0 0 396 247" data-background-color="#ffffff" preserveAspectRatio="xMidYMid meet" height="623" width="1000" xmlns="http://www.w3.org/2000/svg" xmlns:xlink="http://www.w3.org/1999/xlink"><g id="tight-bounds" transform="matrix(1,0,0,1,0.2400000000000091,-0.09999999999999432)"><svg viewBox="0 0 395.52 247.2" height="247.2" width="395.52"><g><svg></svg></g><g><svg viewBox="0 0 395.52 247.2" height="247.2" width="395.52"><mask id="8fbd1a72-555e-4b7e-ad58-6ca4184426f4"><rect width="640" height="400" fill="white"></rect><g transform="matrix(1,0,0,1,123.81914893617021,37.08)"><svg viewBox="0 0 147.88170212765957 173.04" height="173.04" width="147.88170212765957"><g><svg viewBox="0 0 147.88170212765957 173.04" height="173.04" width="147.88170212765957"><g><svg viewBox="0 0 147.88170212765957 173.04" height="173.04" width="147.88170212765957"><g><svg viewBox="0 0 147.88170212765957 173.04" height="173.04" width="147.88170212765957"><g id="SvgjsG1440"><svg viewBox="0 0 147.88170212765957 173.04" height="173.04" width="147.88170212765957" id="SvgjsSvg1439"><g><svg viewBox="0 0 147.88170212765957 173.04" height="173.04" width="147.88170212765957"><g transform="matrix(1,0,0,1,0,0)"><svg width="147.88170212765957" viewBox="-2.5 -38.900001525878906 37.14999961853027 43.30000305175781" height="173.04" data-palette-color="url(#4ef84dcf-da53-48fa-a862-e52d633c7b6d)"><path d="M15.65 0.4Q8.55 0.4 5.03-3.7 1.5-7.8 1.5-16.98 1.5-26.15 5.38-30.53 9.25-34.9 16.43-34.9 23.6-34.9 27.13-31 30.65-27.1 30.65-17.95 30.65-8.8 26.7-4.2 22.75 0.4 15.65 0.4ZM10.8-26.65Q9-24.05 9-17.6 9-11.15 10.9-8.2 12.8-5.25 16.13-5.25 19.45-5.25 21.3-8.03 23.15-10.8 23.15-17.25L23.15-17.25Q23.15-29.25 15.95-29.25L15.95-29.25Q12.6-29.25 10.8-26.65Z" opacity="1" transform="matrix(1,0,0,1,0,0)" fill="black" class="wordmark-text-0" id="SvgjsPath1438" stroke-width="7" stroke="black" stroke-linejoin="round"></path></svg></g></svg></g></svg></g></svg></g></svg></g></svg></g></svg></g></mask><g transform="matrix(1,0,0,1,123.81914893617021,37.08)"><svg viewBox="0 0 147.88170212765957 173.04" height="173.04" width="147.88170212765957"><g><svg viewBox="0 0 147.88170212765957 173.04" height="173.04" width="147.88170212765957"><g><svg viewBox="0 0 147.88170212765957 173.04" height="173.04" width="147.88170212765957"><g><svg viewBox="0 0 147.88170212765957 173.04" height="173.04" width="147.88170212765957"><g id="textblocktransform"><svg viewBox="0 0 147.88170212765957 173.04" height="173.04" width="147.88170212765957" id="textblock"><g><svg viewBox="0 0 147.88170212765957 173.04" height="173.04" width="147.88170212765957"><g transform="matrix(1,0,0,1,0,0)"><svg width="147.88170212765957" viewBox="-2.5 -38.900001525878906 37.14999961853027 43.30000305175781" height="173.04" data-palette-color="url(#4ef84dcf-da53-48fa-a862-e52d633c7b6d)"></svg></g></svg></g></svg></g></svg></g></svg></g></svg></g></svg></g><g mask="url(#8fbd1a72-555e-4b7e-ad58-6ca4184426f4)"><g transform="matrix(2.452, 0, 0, 2.452, 113.61962336730956, 1)"><svg version="1.0" xmlns="http://www.w3.org/2000/svg" xmlns:xlink="http://www.w3.org/1999/xlink" x="0" y="0" viewBox="0 0 68.62999725341797 100" enable-background="new 0 0 68.629 100" xml:space="preserve" width="68.62999725341797" height="100" class="icon-none" data-fill-palette-color="accent" id="none"></svg></g></g></svg></g><defs></defs><mask id="4273b5dc-a41d-4ff9-a3df-f10e79cf68ee"><g id="SvgjsG1450"><svg viewBox="0 0 395.52 247.2" height="247.2" width="395.52"><g><svg></svg></g><g><svg viewBox="0 0 395.52 247.2" height="247.2" width="395.52"><mask id="SvgjsMask1449"><g transform="matrix(1,0,0,1,123.81914893617021,37.08)"><svg viewBox="0 0 147.88170212765957 173.04" height="173.04" width="147.88170212765957"><g><svg viewBox="0 0 147.88170212765957 173.04" height="173.04" width="147.88170212765957"><g><svg viewBox="0 0 147.88170212765957 173.04" height="173.04" width="147.88170212765957"><g><svg viewBox="0 0 147.88170212765957 173.04" height="173.04" width="147.88170212765957"><g id="SvgjsG1448"><svg viewBox="0 0 147.88170212765957 173.04" height="173.04" width="147.88170212765957" id="SvgjsSvg1447"><g><svg viewBox="0 0 147.88170212765957 173.04" height="173.04" width="147.88170212765957"><g transform="matrix(1,0,0,1,0,0)"><svg width="147.88170212765957" viewBox="-2.5 -38.900001525878906 37.14999961853027 43.30000305175781" height="173.04" data-palette-color="url(#4ef84dcf-da53-48fa-a862-e52d633c7b6d)"></svg></g></svg></g></svg></g></svg></g></svg></g></svg></g></svg></g></mask><g transform="matrix(1,0,0,1,123.81914893617021,37.08)"><svg viewBox="0 0 147.88170212765957 173.04" height="173.04" width="147.88170212765957"><g><svg viewBox="0 0 147.88170212765957 173.04" height="173.04" width="147.88170212765957"><g><svg viewBox="0 0 147.88170212765957 173.04" height="173.04" width="147.88170212765957"><g><svg viewBox="0 0 147.88170212765957 173.04" height="173.04" width="147.88170212765957"><g id="SvgjsG1445"><svg viewBox="0 0 147.88170212765957 173.04" height="173.04" width="147.88170212765957" id="SvgjsSvg1444"><g><svg viewBox="0 0 147.88170212765957 173.04" height="173.04" width="147.88170212765957"><g transform="matrix(1,0,0,1,0,0)"><svg width="147.88170212765957" viewBox="-2.5 -38.900001525878906 37.14999961853027 43.30000305175781" height="173.04" data-palette-color="url(#4ef84dcf-da53-48fa-a862-e52d633c7b6d)"><path d="M15.65 0.4Q8.55 0.4 5.03-3.7 1.5-7.8 1.5-16.98 1.5-26.15 5.38-30.53 9.25-34.9 16.43-34.9 23.6-34.9 27.13-31 30.65-27.1 30.65-17.95 30.65-8.8 26.7-4.2 22.75 0.4 15.65 0.4ZM10.8-26.65Q9-24.05 9-17.6 9-11.15 10.9-8.2 12.8-5.25 16.13-5.25 19.45-5.25 21.3-8.03 23.15-10.8 23.15-17.25L23.15-17.25Q23.15-29.25 15.95-29.25L15.95-29.25Q12.6-29.25 10.8-26.65Z" opacity="1" transform="matrix(1,0,0,1,0,0)" fill="white" class="wordmark-text-0" id="SvgjsPath1443"></path></svg></g></svg></g></svg></g></svg></g></svg></g></svg></g></svg></g><g mask="url(#8fbd1a72-555e-4b7e-ad58-6ca4184426f4)"><g transform="matrix(2.452, 0, 0, 2.452, 113.61962336730956, 1)"><svg version="1.0" xmlns="http://www.w3.org/2000/svg" xmlns:xlink="http://www.w3.org/1999/xlink" x="0" y="0" viewBox="0 0 68.62999725341797 100" enable-background="new 0 0 68.629 100" xml:space="preserve" width="68.62999725341797" height="100" class="icon-none" data-fill-palette-color="accent" id="SvgjsSvg1442"></svg></g></g></svg></g><defs><mask></mask></defs></svg></g></mask><linearGradient x1="0.054" x2="0.941" y1="0.5" y2="0.5" id="4ef84dcf-da53-48fa-a862-e52d633c7b6d"><stop stop-color="#864d25" offset="0"></stop><stop stop-color="#f1c4b3" offset="0.498"></stop><stop stop-color="#864d25" offset="1"></stop></linearGradient><rect width="395.5199890136719" height="247.1999969482422" fill="url(#4ef84dcf-da53-48fa-a862-e52d633c7b6d)" mask="url(#4273b5dc-a41d-4ff9-a3df-f10e79cf68ee)" data-fill-palette-color="primary"></rect><mask id="023c1f4d-0ccd-4f84-beec-9ba4a2721c2f"><g id="SvgjsG1466"><svg viewBox="0 0 395.52 247.2" height="247.2" width="395.52"><g><svg></svg></g><g><svg viewBox="0 0 395.52 247.2" height="247.2" width="395.52"><mask id="SvgjsMask1465"><g transform="matrix(1,0,0,1,123.81914893617021,37.08)"><svg viewBox="0 0 147.88170212765957 173.04" height="173.04" width="147.88170212765957"><g><svg viewBox="0 0 147.88170212765957 173.04" height="173.04" width="147.88170212765957"><g><svg viewBox="0 0 147.88170212765957 173.04" height="173.04" width="147.88170212765957"><g><svg viewBox="0 0 147.88170212765957 173.04" height="173.04" width="147.88170212765957"><g id="SvgjsG1464"><svg viewBox="0 0 147.88170212765957 173.04" height="173.04" width="147.88170212765957" id="SvgjsSvg1463"><g><svg viewBox="0 0 147.88170212765957 173.04" height="173.04" width="147.88170212765957"><g transform="matrix(1,0,0,1,0,0)"><svg width="147.88170212765957" viewBox="-2.5 -38.900001525878906 37.14999961853027 43.30000305175781" height="173.04" data-palette-color="url(#4ef84dcf-da53-48fa-a862-e52d633c7b6d)"></svg></g></svg></g></svg></g></svg></g></svg></g></svg></g></svg></g></mask><g transform="matrix(1,0,0,1,123.81914893617021,37.08)"><svg viewBox="0 0 147.88170212765957 173.04" height="173.04" width="147.88170212765957"><g><svg viewBox="0 0 147.88170212765957 173.04" height="173.04" width="147.88170212765957"><g><svg viewBox="0 0 147.88170212765957 173.04" height="173.04" width="147.88170212765957"><g><svg viewBox="0 0 147.88170212765957 173.04" height="173.04" width="147.88170212765957"><g id="SvgjsG1461"><svg viewBox="0 0 147.88170212765957 173.04" height="173.04" width="147.88170212765957" id="SvgjsSvg1460"><g><svg viewBox="0 0 147.88170212765957 173.04" height="173.04" width="147.88170212765957"><g transform="matrix(1,0,0,1,0,0)"><svg width="147.88170212765957" viewBox="-2.5 -38.900001525878906 37.14999961853027 43.30000305175781" height="173.04" data-palette-color="url(#4ef84dcf-da53-48fa-a862-e52d633c7b6d)"></svg></g></svg></g></svg></g></svg></g></svg></g></svg></g></svg></g><g mask="url(#8fbd1a72-555e-4b7e-ad58-6ca4184426f4)"><g transform="matrix(2.452, 0, 0, 2.452, 113.61962336730956, 1)"><svg version="1.0" xmlns="http://www.w3.org/2000/svg" xmlns:xlink="http://www.w3.org/1999/xlink" x="0" y="0" viewBox="0 0 68.62999725341797 100" enable-background="new 0 0 68.629 100" xml:space="preserve" width="68.62999725341797" height="100" class="icon-none" data-fill-palette-color="accent" id="SvgjsSvg1459"><path d="M37.731 21.442C36.088 9.35 25.698 0 13.163 0v7.286c8.546 0 15.677 6.156 17.203 14.266C21.347 23.411 0 28.602 0 36.076v0.464c0 5.827 2.907 10.971 7.346 14.072v17.42l0 0C7.346 82.928 19.42 100 34.315 100s26.969-17.072 26.969-31.967v-17.42c4.439-3.102 7.346-8.246 7.346-14.072v-0.464C68.629 28.45 46.407 23.201 37.731 21.442z" fill="white"></path></svg></g></g></svg></g><defs><mask></mask></defs><mask><g id="SvgjsG1458"><svg viewBox="0 0 395.52 247.2" height="247.2" width="395.52"><g><svg></svg></g><g><svg viewBox="0 0 395.52 247.2" height="247.2" width="395.52"><mask id="SvgjsMask1457"><g transform="matrix(1,0,0,1,123.81914893617021,37.08)"><svg viewBox="0 0 147.88170212765957 173.04" height="173.04" width="147.88170212765957"><g><svg viewBox="0 0 147.88170212765957 173.04" height="173.04" width="147.88170212765957"><g><svg viewBox="0 0 147.88170212765957 173.04" height="173.04" width="147.88170212765957"><g><svg viewBox="0 0 147.88170212765957 173.04" height="173.04" width="147.88170212765957"><g id="SvgjsG1456"><svg viewBox="0 0 147.88170212765957 173.04" height="173.04" width="147.88170212765957" id="SvgjsSvg1455"><g><svg viewBox="0 0 147.88170212765957 173.04" height="173.04" width="147.88170212765957"><g transform="matrix(1,0,0,1,0,0)"><svg width="147.88170212765957" viewBox="-2.5 -38.900001525878906 37.14999961853027 43.30000305175781" height="173.04" data-palette-color="url(#4ef84dcf-da53-48fa-a862-e52d633c7b6d)"></svg></g></svg></g></svg></g></svg></g></svg></g></svg></g></svg></g></mask><g transform="matrix(1,0,0,1,123.81914893617021,37.08)"><svg viewBox="0 0 147.88170212765957 173.04" height="173.04" width="147.88170212765957"><g><svg viewBox="0 0 147.88170212765957 173.04" height="173.04" width="147.88170212765957"><g><svg viewBox="0 0 147.88170212765957 173.04" height="173.04" width="147.88170212765957"><g><svg viewBox="0 0 147.88170212765957 173.04" height="173.04" width="147.88170212765957"><g id="SvgjsG1454"><svg viewBox="0 0 147.88170212765957 173.04" height="173.04" width="147.88170212765957" id="SvgjsSvg1453"><g><svg viewBox="0 0 147.88170212765957 173.04" height="173.04" width="147.88170212765957"><g transform="matrix(1,0,0,1,0,0)"><svg width="147.88170212765957" viewBox="-2.5 -38.900001525878906 37.14999961853027 43.30000305175781" height="173.04" data-palette-color="url(#4ef84dcf-da53-48fa-a862-e52d633c7b6d)"></svg></g></svg></g></svg></g></svg></g></svg></g></svg></g></svg></g><g mask="url(#8fbd1a72-555e-4b7e-ad58-6ca4184426f4)"><g transform="matrix(2.452, 0, 0, 2.452, 113.61962336730956, 1)"><svg version="1.0" xmlns="http://www.w3.org/2000/svg" xmlns:xlink="http://www.w3.org/1999/xlink" x="0" y="0" viewBox="0 0 68.62999725341797 100" enable-background="new 0 0 68.629 100" xml:space="preserve" width="68.62999725341797" height="100" class="icon-none" data-fill-palette-color="accent" id="SvgjsSvg1451"></svg></g></g></svg></g><defs><mask></mask></defs></svg></g></mask></svg></g></mask><linearGradient x1="0.054" x2="0.941" y1="0.5" y2="0.5" id="2a438077-237c-4d1e-95e9-50580a3e992d"><stop stop-color="#864d25" offset="0"></stop><stop stop-color="#f1c4b3" offset="0.498"></stop><stop stop-color="#864d25" offset="1"></stop></linearGradient><rect width="395.5199890136719" height="247.1999969482422" fill="url(#2a438077-237c-4d1e-95e9-50580a3e992d)" mask="url(#023c1f4d-0ccd-4f84-beec-9ba4a2721c2f)" data-fill-palette-color="accent"></rect></svg><rect width="395.52" height="247.2" fill="none" stroke="none" visibility="hidden"></rect></g></svg></g></svg>